<?xml version="1.0" standalone="no"?>
<!DOCTYPE svg PUBLIC "-//W3C//DTD SVG 1.1//EN" "http://www.w3.org/Graphics/SVG/1.1/DTD/svg11.dtd" >
<svg xmlns="http://www.w3.org/2000/svg">
<metadata>
This is a custom SVG webfont generated by Font Squirrel.
Copyright   :  Graham Meade All rights reserved gemc031aonenetau
Designer    : Graham Meade
</metadata>
<defs>
<font id="webfontMAZXZguX" horiz-adv-x="1067" >
<font-face units-per-em="2048" ascent="1638" descent="-410" />
<missing-glyph horiz-adv-x="532" />
<glyph unicode=" "  horiz-adv-x="532" />
<glyph unicode="&#x09;" horiz-adv-x="532" />
<glyph unicode="&#xa0;" horiz-adv-x="532" />
<glyph unicode="!" horiz-adv-x="628" d="M272 96q0 -96 43 -96q45 0 45 96t-45 97q-43 -1 -43 -97zM274 1470l19 -1103h49l18 1103h-86z" />
<glyph unicode="&#x22;" horiz-adv-x="530" d="M102 981h70v453h-70v-453zM358 981h70v453h-70v-453z" />
<glyph unicode="#" horiz-adv-x="1093" d="M102 506h152l-82 -227h94l84 227h277l-82 -227h96l80 227h172l20 74h-168l103 290l143 -2l25 74l-139 2l79 223h-94l-82 -223h-274l82 223h-96l-82 -223l-177 -2l-22 -74l174 2l-106 -290h-154zM379 580l100 290h273l-101 -290h-272z" />
<glyph unicode="$" horiz-adv-x="1173" d="M92 449q16 -225 152 -355q84 -80 205 -108v-201h73v188q18 -2 37 -3t35 -1h14v-184h74v188q164 23 268 111q133 115 133 307q0 184 -155 285q-47 29 -127 59.5t-197 59.5q-10 4 -17 5t-12 3q-223 57 -290 119q-90 84 -90 198q0 152 100 240q59 53 154 76v-502l73 -21v533 q10 2 23 2h22h41v-565l74 -21v574q104 -20 180 -90q111 -100 115 -273h65q-10 203 -135 316q-92 86 -225 106v223h-74v-215q-10 2 -18 2h-19h-24q-12 0 -25 -2v215h-73v-225q-115 -20 -199 -92q-121 -109 -121 -281q0 -150 104 -243q66 -61 322 -134l27 -8q227 -66 295 -106 q137 -86 137 -256q0 -154 -117 -248q-88 -72 -215 -90v545l-74 18v-569h-12q-37 0 -74 6v614l-73 21v-621q-94 29 -158 92q-119 113 -131 308h-68z" />
<glyph unicode="%" horiz-adv-x="1488" d="M92 1120q0 -137 74 -237q84 -115 211 -115q131 0 211 115q72 100 71 237q0 133 -73 238q-84 115 -209 115q-127 0 -211 -115q-74 -103 -74 -238zM156 1120q0 109 55 193q61 96 166 96q98 0 164 -96q55 -84 55 -193q0 -111 -55 -192q-66 -98 -164 -99q-104 0 -166 99 q-55 81 -55 192zM346 0h72l708 1540h-69zM831 358q0 -133 72 -235q82 -117 211 -117t213 115q72 102 72 237q0 133 -74 238q-84 117 -211 117t-211 -115q-72 -107 -72 -240zM895 358q0 111 53 195q63 94 166 94q100 0 166 -96q53 -84 53 -193q0 -106 -53 -190 q-66 -98 -166 -98t-166 96q-53 83 -53 192z" />
<glyph unicode="&#x26;" horiz-adv-x="1247" d="M113 395q-4 -195 129 -317q125 -117 323 -117q252 0 443 236l161 -197h84l-206 256q96 164 98 408h-64q0 -217 -73 -355q-70 -135 -207 -215q-121 -74 -254 -74q-160 0 -264 107q-102 109 -103 270q0 135 117 256q88 94 285 178q297 125 297 365q0 129 -77 203t-206 74 q-125 0 -209 -72q-86 -78 -86 -219q0 -80 68 -172q76 -111 161 -111q10 0 27 4q-436 -162 -444 -508zM371 1210q0 92 62.5 148.5t154.5 56.5q100 0 163.5 -59.5t63.5 -159.5q0 -90 -74 -166q-63 -68 -118 -69q-20 -4 -31 -5q-96 0 -164 95q-57 77 -57 159z" />
<glyph unicode="'" horiz-adv-x="274" d="M102 981h70v453h-70v-453z" />
<glyph unicode="(" horiz-adv-x="589" d="M199 528q0 -508 315 -977h70q-317 471 -318 986q0 510 297 929h-71q-293 -434 -293 -938z" />
<glyph unicode=")" horiz-adv-x="589" d="M12 -449h70q317 475 317 977q0 504 -293 938h-71q297 -420 297 -929q-1 -513 -320 -986z" />
<glyph unicode="*" horiz-adv-x="1024" d="M238 1044q0 -16 20 -16q37 0 133 55q33 16 55.5 33t38.5 31q-10 -45 -10 -113q0 -156 37 -155q37 0 37 155q0 68 -10 113q16 -14 38.5 -30.5t55.5 -33.5q94 -55 133 -55q20 0 20 16q0 33 -116 101q-66 37 -105 49q39 12 105 49q117 68 116 100q0 16 -20 17 q-39 0 -133 -55q-33 -16 -55.5 -33t-38.5 -31q10 45 10 113q0 156 -37 155q-37 0 -37 -155q0 -68 10 -113q-16 14 -38.5 30.5t-55.5 33.5q-96 55 -133 55q-20 0 -20 -17q0 -33 116 -100q63 -37 105 -49q-41 -12 -105 -49q-116 -68 -116 -101zM506 1194l4 4h4l4 -4l-4 -4h-4z " />
<glyph unicode="+" horiz-adv-x="1705" d="M254 580h569v-580h62v580h567v61h-567v580h-62v-580h-569v-61z" />
<glyph unicode="," horiz-adv-x="532" d="M174 104q0 -37 26.5 -67.5t63.5 -30.5v-250h72v453h-72v-6q-37 0 -63.5 -30t-26.5 -69z" />
<glyph unicode="-" horiz-adv-x="702" d="M78 500h545v57h-545v-57z" />
<glyph unicode="." horiz-adv-x="532" d="M221 66q0 -14 2 -21q4 -23 8 -31q0 -4 2 -6q2 -8 13 -14q4 -4 8 -4q4 -2 12 -2t10 2q8 2 17 10l4 4q2 4 3 7t3 7q4 12 4 21q2 4 2 14q0 4 1 6t1 7v18q0 12 -1 23.5t-3 21.5q0 6 -4 18l-6 13q-2 4 -8 10q-4 4 -9.5 5t-9.5 3h-4q-8 0 -12 -2q-10 -4 -14 -10q-8 -8 -11 -19 q-2 -4 -2 -6l-2 -4q0 -6 -2 -8v-8q-2 -10 -2 -37v-18z" />
<glyph unicode="/" horiz-adv-x="598" d="M-33 -170h70l645 1681h-70z" />
<glyph unicode="0" d="M80 696q0 -289 84 -479q115 -256 368 -256q258 0 371 254q84 190 84 481q0 289 -84 480q-115 256 -371 256q-254 0 -368 -256q-84 -191 -84 -480zM150 696q0 260 65 432q94 242 320 242q223 0 319 -244q63 -164 64 -430q0 -268 -64 -432q-96 -244 -319 -244t-320 244 q-65 172 -65 432zM362 467l50 -31l280 467l-49 31z" />
<glyph unicode="1" d="M324 1018l237 272l2 -1290h68v1391h-68l-2 2l-237 -283v-92z" />
<glyph unicode="2" d="M66 0h884v61h-733l651 723h-2q92 106 92 263q0 180 -109.5 281.5t-289.5 101.5q-197 0 -306.5 -110t-109.5 -306v-19h72v23q0 162 92 255t252 93q150 0 238 -88t88 -238q0 -133 -84 -229z" />
<glyph unicode="3" d="M104 299q61 -334 416 -334q201 0 326 113q129 119 129 319q0 139 -74 250q-78 123 -207 150q238 23 238 313q0 160 -115 244q-102 74 -268 73q-311 0 -391 -251l59 -29q66 219 318 219q326 0 325 -258q0 -295 -381 -279l-47 2l10 -65q16 2 31 2h33q178 0 287 -98 q111 -102 110 -281q0 -164 -112 -264q-109 -96 -273 -96q-305 0 -352 299z" />
<glyph unicode="4" d="M76 416l20 -45h654v-371h65v371h158v61h-158v959l-72 -2zM166 430l586 846v-846h-586z" />
<glyph unicode="5" d="M98 358q18 -186 125 -290q113 -109 295 -109q104 0 187 33t141.5 92t90.5 144t32 190q0 201 -115 325q-117 127 -317 127q-205 0 -324 -116v575h698v62h-766l2 -727h56q113 147 321 147q174 0 274.5 -103.5t100.5 -281.5q0 -186 -100 -293q-100 -113 -285 -113 q-317 0 -350 338h-66z" />
<glyph unicode="6" d="M96 662q0 -700 463 -701q195 0 309 139q104 131 105 332q0 207 -103 334q-111 137 -313 137q-309 0 -389 -328q-2 16 -2 41v62q0 686 405 686q276 0 318 -281h65q-16 162 -110 252q-98 92 -260 92q-488 1 -488 -765zM205 434q0 172 86 287q96 121 264 121q172 0 264 -123 q82 -106 82 -287q0 -178 -88 -287q-96 -121 -268 -120q-170 0 -258 125q-82 108 -82 284z" />
<glyph unicode="7" d="M119 1325l760 -2l-465 -1323h69l490 1393h-72v-2h-782v-66z" />
<glyph unicode="8" d="M90 387q0 -195 123 -311q119 -113 313 -113q207 0 326 113q125 113 125 319q0 279 -270 369q211 94 211 309q0 168 -109 264q-104 92 -277 93q-170 0 -274 -93q-111 -98 -111 -264q0 -219 213 -309q-270 -96 -270 -377zM162 397q0 162 106 250q96 82 264 82 q164 0 267 -84q106 -88 106 -252q0 -84 -27.5 -150.5t-76.5 -113.5t-118 -72.5t-151 -25.5q-168 0 -269 99t-101 267zM221 1079q0 135 88 215q84 76 223 76t224 -76q90 -80 90 -215t-90 -213q-84 -76 -224 -75q-141 0 -223 73q-88 76 -88 215z" />
<glyph unicode="9" d="M96 954q0 -207 103 -333q106 -137 311 -138q150 0 256 90q96 86 133 238q2 -18 2 -45v-57q0 -686 -405 -686q-276 0 -318 280h-65q14 -164 110 -252q100 -90 260 -90q489 0 490 764q0 702 -465 702q-199 0 -309 -141q-103 -131 -103 -332zM166 954q0 180 88 287 q96 121 268 121q168 0 260 -125q82 -109 82 -285q0 -178 -88 -284q-96 -123 -264 -123q-170 0 -262 123q-84 112 -84 286z" />
<glyph unicode=":" horiz-adv-x="581" d="M231 84q0 -96 45 -96t46 96q0 94 -46 94q-45 0 -45 -94zM231 893q0 -96 45 -96t46 96q0 96 -46 96q-45 0 -45 -96z" />
<glyph unicode=";" horiz-adv-x="581" d="M174 104q0 -37 26.5 -67.5t63.5 -30.5v-250h72v453h-72v-6q-37 0 -63.5 -30t-26.5 -69zM231 893q0 -96 45 -96t46 96q0 96 -46 96q-45 0 -45 -96z" />
<glyph unicode="&#x37e;" horiz-adv-x="581" d="M174 104q0 -37 26.5 -67.5t63.5 -30.5v-250h72v453h-72v-6q-37 0 -63.5 -30t-26.5 -69zM231 893q0 -96 45 -96t46 96q0 96 -46 96q-45 0 -45 -96z" />
<glyph unicode="&#x3c;" horiz-adv-x="1089" d="M141 590l805 -385v69l-694 336l694 328v70l-805 -377v-41z" />
<glyph unicode="=" horiz-adv-x="1705" d="M254 422h1198v63h-1198v-63zM254 745h1198v64h-1198v-64z" />
<glyph unicode="&#x3e;" horiz-adv-x="1089" d="M141 205l805 385v41l-805 377v-70l697 -328l-697 -336v-69z" />
<glyph unicode="?" horiz-adv-x="948" d="M74 1180l65 -21q49 279 336 279q342 0 342 -297q0 -117 -104 -193q-184 -135 -197 -147q-104 -121 -104 -326q0 -51 6 -113h65q-4 33 -7 63t-3 58q0 180 109 285l143 110q49 38 55 42q106 82 107 229q0 170 -119 264q-109 90 -281 90q-205 0 -317 -123q-71 -81 -96 -200z M401 96q0 -96 43 -96q45 0 45 96t-45 97q-43 -1 -43 -97z" />
<glyph unicode="@" horiz-adv-x="2048" d="M127 524q0 -387 299 -614q236 -180 616 -180q354 0 644 215l-23 35q-287 -193 -631 -193q-358 0 -577 180q-238 195 -238 541q0 430 322 688q236 188 567 188q303 0 506 -147q227 -170 227 -459q0 -309 -151 -471q-43 -45 -71 -71.5t-40 -34.5q-66 -47 -178 -68 q-14 -2 -24.5 -3t-18.5 -1q-35 0 -43 18q-2 4 -4 15.5t-4 32.5l137 876l-66 -2l-28 -180q-61 197 -299 190q-201 -4 -326 -147q-111 -123 -145 -338l-8 -59q-3 -27 -3 -50q0 -100 54 -190q102 -170 280 -166q242 6 361 205l-27 -174h2q-2 -6 -2 -21q0 -72 90 -71 q10 0 23.5 1t29.5 3q57 8 105.5 22.5t87.5 36.5q8 4 40 30l91 70q219 176 219 545q0 305 -258 502q-219 166 -549 166q-498 0 -790 -354q-197 -240 -197 -566zM635 489q0 23 2 50.5t6 56.5q29 178 123 291q109 131 274 133q168 4 234 -121q41 -76 41 -180q0 -27 -2 -53.5 t-6 -53.5q-29 -180 -121 -288q-109 -131 -275 -134q-168 -6 -235 119q-41 76 -41 180z" />
<glyph unicode="A" horiz-adv-x="1175" d="M-10 0h67l193 502h686l190 -502h68l-559 1473h-78zM274 563l322 830l315 -830h-637z" />
<glyph unicode="B" horiz-adv-x="1265" d="M168 0h448q283 0 402 72q168 104 168 321q0 315 -328 379q252 88 252 336q0 209 -158 301q-106 63 -381 64h-403v-1473zM238 61v678h366q227 0 344 -55q166 -78 166 -278q0 -233 -180 -308q-90 -37 -332 -37h-364zM238 793v618h337q217 0 316 -45q150 -68 149 -254 q0 -319 -460 -319h-342z" />
<glyph unicode="C" horiz-adv-x="1394" d="M104 733q0 -332 138 -530q160 -231 475 -232q246 0 397 133q113 100 152 250l-60 31q-35 -145 -141 -238q-137 -119 -358 -118q-274 0 -414 225q-117 186 -117 479q0 291 121 484q143 227 420 227q373 0 473 -303l63 33q-45 125 -153 210q-152 121 -371 121 q-322 0 -483 -233q-142 -207 -142 -539z" />
<glyph unicode="D" horiz-adv-x="1411" d="M168 0h338q317 0 473 72q326 154 326 663q0 502 -326 666q-147 72 -473 72h-338v-1473zM238 61v1348h284q90 0 158 -4t115 -12q152 -29 243 -111q195 -176 195 -547q0 -457 -272 -600q-141 -74 -439 -74h-284z" />
<glyph unicode="E" horiz-adv-x="1161" d="M168 0h919v66h-849v669h657v64h-657v608h829v66h-899v-1473z" />
<glyph unicode="F" horiz-adv-x="1071" d="M168 0h70v735h628v64h-628v608h790v66h-860v-1473z" />
<glyph unicode="G" horiz-adv-x="1452" d="M106 735q0 -330 152 -536q168 -229 487 -230q145 0 275 54q322 137 321 606v37q0 18 -2 39h-551v-62h486v-63q0 -254 -137 -400q-141 -152 -392 -151q-285 0 -436 219q-131 186 -131 487t131 490q152 219 436 219q391 0 490 -326l63 31q-55 180 -211 272q-143 84 -342 84 q-322 0 -489 -233q-150 -205 -150 -537z" />
<glyph unicode="H" horiz-adv-x="1404" d="M168 0h70v756h931v-756h68v1473h-68v-656h-931v656h-70v-1473z" />
<glyph unicode="I" horiz-adv-x="423" d="M178 0h68v1473h-68v-1473z" />
<glyph unicode="J" horiz-adv-x="968" d="M111 166q80 -199 327 -199q377 0 377 461v1045h-67v-1024q0 -205 -52 -295q-68 -127 -252 -127q-203 0 -270 166l-32 -16q-15 -7 -31 -11z" />
<glyph unicode="K" horiz-adv-x="1191" d="M168 0h70v553l278 283l633 -836h82l-670 883l582 590h-88l-817 -830v830h-70v-1473z" />
<glyph unicode="L" horiz-adv-x="1042" d="M170 0h850v66h-780v1407h-70v-1473z" />
<glyph unicode="M" horiz-adv-x="1583" d="M168 0h61v1386l551 -1034h41l533 1034v-1386h61v1473h-96l-516 -1037l-537 1037h-98v-1473z" />
<glyph unicode="N" horiz-adv-x="1396" d="M168 0h68v1354l925 -1354h68v1473h-68v-1356l-923 1356h-70v-1473z" />
<glyph unicode="O" horiz-adv-x="1517" d="M106 735q0 -338 154 -540q170 -225 498 -226q328 0 499 226q154 203 154 540q0 336 -154 543q-172 227 -499 227q-326 0 -498 -229q-154 -207 -154 -541zM178 735q0 305 133 494q154 215 447 215t446 -215q135 -188 135 -494q0 -307 -133 -493q-152 -213 -448 -213 q-295 0 -447 213q-133 188 -133 493z" />
<glyph unicode="P" horiz-adv-x="1177" d="M168 0h70v680h325q156 0 228 14q125 25 198 99q111 113 111 290q0 389 -531 390h-401v-1473zM238 741v670h282q162 0 236 -12q272 -43 272 -309q0 -236 -168 -310q-86 -39 -342 -39h-280z" />
<glyph unicode="Q" horiz-adv-x="1517" d="M106 735q0 -338 154 -540q170 -225 498 -226q143 0 260 43q20 -68 59 -112q84 -98 336 -115l12 53q-233 18 -303 101q-31 33 -53 98q94 49 168 135q174 205 174 563q0 336 -154 543q-172 227 -499 227q-326 0 -498 -229q-154 -207 -154 -541zM178 735q0 305 133 494 q154 215 447 215t446 -215q135 -188 135 -494q0 -332 -155 -518q-61 -74 -133 -115q-39 162 -70 213q-49 78 -180 117q-98 29 -187 35l-4 -66q233 -14 305 -100q33 -37 56 -102q8 -29 30 -123q-111 -47 -243 -47q-295 0 -447 213q-133 188 -133 493z" />
<glyph unicode="R" horiz-adv-x="1273" d="M168 0h70v696h444q154 0 225 -37q92 -47 115 -182q2 -16 3 -52t1 -95v-330h80l-2 281q0 180 -2 190q-20 217 -207 254q266 82 266 362q0 225 -145 316q-115 70 -359 70h-489v-1473zM238 758v651h419q63 0 110.5 -3t76.5 -7q248 -45 248 -318q0 -324 -400 -323h-454z" />
<glyph unicode="S" horiz-adv-x="1173" d="M92 449q14 -225 148 -351q131 -129 354 -129q211 0 344 103q145 115 145 319q0 184 -155 285q-88 55 -324 119q-10 4 -17 5t-12 3q-223 57 -290 119q-90 84 -90 198q0 160 108 246q100 82 264 82q176 0 289 -96q117 -100 121 -279h65q-10 207 -139 320q-125 113 -332 112 q-190 0 -311 -96q-131 -100 -131 -289q0 -150 104 -243q68 -61 322 -134q25 -6 27 -8q227 -61 295 -106q137 -86 137 -256q0 -164 -131 -258q-115 -86 -287 -86q-197 0 -310.5 113.5t-125.5 306.5h-68z" />
<glyph unicode="T" horiz-adv-x="1042" d="M33 1409h459v-1409h69v1409h459v64h-987v-64z" />
<glyph unicode="U" horiz-adv-x="1374" d="M158 514q0 -260 137 -399q139 -145 393 -146q252 0 393 146q137 143 138 399v959h-68v-926q0 -242 -109 -375q-119 -143 -354 -143q-463 0 -463 518v926h-67v-959z" />
<glyph unicode="V" horiz-adv-x="1075" d="M-4 1473l508 -1473h65l512 1473h-71l-471 -1373l-473 1373h-70z" />
<glyph unicode="W" horiz-adv-x="1687" d="M16 1473l394 -1473h69l365 1026l364 -1026h70l393 1473h-69l-359 -1350l-366 999h-66l-365 -999l-360 1350h-70z" />
<glyph unicode="X" horiz-adv-x="1085" d="M2 0h76l461 694l467 -694h77l-499 756l471 717h-76l-436 -662l-439 662h-79l477 -719z" />
<glyph unicode="Y" horiz-adv-x="1085" d="M2 1473l506 -822v-651h67v647l506 826h-77l-459 -752l-465 752h-78z" />
<glyph unicode="Z" horiz-adv-x="1083" d="M18 0h1045v61h-971l946 1342v70h-940v-64h867l-947 -1341v-68z" />
<glyph unicode="[" horiz-adv-x="618" d="M236 -420h346v62h-275v1765h275v63h-346v-1890z" />
<glyph unicode="\" horiz-adv-x="598" d="M-74 1511l631 -1681h72l-631 1681h-72z" />
<glyph unicode="]" horiz-adv-x="618" d="M45 -358v-62h346v1890h-346v-63h274v-1765h-274z" />
<glyph unicode="^" horiz-adv-x="1110" d="M211 954h108l236 402l238 -402h108l-297 502h-96z" />
<glyph unicode="_" horiz-adv-x="1024" d="M0 -420v-61h1024v61h-1024z" />
<glyph unicode="`" horiz-adv-x="1024" d="M309 1524l209 -328h109l-209 328h-109z" />
<glyph unicode="a" horiz-adv-x="1171" d="M94 528q0 -242 111 -391q127 -164 358 -164q299 0 402 256v-229h63v1063h-63v-244q-104 266 -402 266q-236 0 -358 -165q-111 -148 -111 -392zM160 528q0 215 94 346q104 154 309 154t309 -154q92 -133 93 -346q0 -215 -93 -346q-104 -154 -309 -153q-205 0 -311 153 q-92 131 -92 346z" />
<glyph unicode="b" horiz-adv-x="1171" d="M141 0h66v225q123 -252 401 -252q236 0 359 164q111 147 110 391q0 242 -110 390q-125 168 -359 167q-291 0 -401 -264v649h-66v-1470zM207 528q0 213 92 346q104 154 309 154q203 0 312 -154q92 -133 92 -346q0 -215 -92 -346q-109 -154 -312 -153q-203 0 -309 153 q-92 131 -92 346z" />
<glyph unicode="c" horiz-adv-x="1062" d="M90 528q0 -236 109 -387q123 -168 352 -168q174 0 289 97q80 72 114 186l-55 33q-31 -123 -124 -191.5t-218 -68.5q-203 0 -309 153q-92 131 -92 346q0 213 92 346q104 154 309 154q133 0 225 -74q72 -59 99 -137l55 37q-90 231 -379 231q-233 0 -356 -167 q-111 -148 -111 -390z" />
<glyph unicode="d" horiz-adv-x="1171" d="M94 528q0 -244 111 -391q123 -164 358 -164q297 0 402 263v-236h63v1470h-63v-641q-98 256 -402 256q-233 0 -358 -167q-111 -148 -111 -390zM160 528q0 215 94 346q104 154 309 154t309 -154q92 -133 93 -346q0 -215 -93 -346q-104 -154 -309 -153q-205 0 -311 153 q-92 131 -92 346z" />
<glyph unicode="e" horiz-adv-x="1071" d="M88 528q0 -238 105 -387q119 -168 346 -168q160 0 274 90q88 70 129 179l-53 28q-92 -242 -350 -241q-186 0 -291 151q-92 131 -92 328v16h829v39q0 231 -106 369q-117 154 -340 153q-227 0 -346 -172q-105 -147 -105 -385zM158 584q12 190 104 311q104 133 289 133 q178 0 276 -137q88 -121 88 -307h-757z" />
<glyph unicode="f" horiz-adv-x="432" d="M98 0h64v1004h209v59h-209v151q0 111 18 152q31 61 127 61h178v56l-188 -2q-129 0 -168 -74q-31 -55 -31 -195v-1212z" />
<glyph unicode="g" horiz-adv-x="1171" d="M94 528q0 -240 109 -391q123 -166 356 -166q295 0 406 256v-108q0 -223 -47 -307q-100 -180 -367 -181q-143 0 -236 56q-106 63 -116 200h-62q4 -160 125 -241q109 -72 273 -72q299 0 426 184q68 98 67 299v1006h-63v-238q-47 129 -156 194.5t-246 65.5q-236 0 -358 -165 q-111 -148 -111 -392zM160 528q0 215 94 346q104 154 309 154t309 -154q92 -133 93 -346q0 -215 -93 -346q-104 -154 -309 -153q-205 0 -311 153q-92 131 -92 346z" />
<glyph unicode="h" d="M141 0h66v569q0 61 3 107.5t7 77.5q49 272 350 272q164 0 236 -92q61 -80 61 -250v-684h66v705q0 381 -365 380q-258 0 -358 -196v581h-66v-1470z" />
<glyph unicode="i" horiz-adv-x="358" d="M135 1393q0 -98 43 -99q45 0 45 99q0 96 -45 96q-43 0 -43 -96zM147 0h64v1063h-64v-1063z" />
<glyph unicode="j" horiz-adv-x="358" d="M-102 -360v-62h125q125 0 163 70q27 47 27 188v1227h-63v-1204q0 -127 -15 -158q-25 -61 -127 -61h-110zM131 1393q0 -98 43 -99q45 0 45 99q0 96 -45 96q-43 0 -43 -96z" />
<glyph unicode="k" horiz-adv-x="937" d="M141 0h66v379l260 252l420 -631h74l-449 676l387 387h-80l-612 -606v1013h-66v-1470z" />
<glyph unicode="l" horiz-adv-x="358" d="M147 0h64v1470h-64v-1470z" />
<glyph unicode="m" horiz-adv-x="1673" d="M141 0h66v573q0 59 3 105.5t7 77.5q45 270 318 270q184 0 241 -137q31 -72 31 -250v-639h63v573q0 205 60 314q78 139 268 139q184 0 242 -137q31 -72 30 -250v-639h66v705q0 381 -336 380q-236 0 -346 -217q-57 217 -315 217q-227 0 -332 -196v174h-66v-1063z" />
<glyph unicode="n" d="M141 0h66v569q0 61 3 107.5t7 77.5q49 272 350 272q164 0 236 -92q61 -80 61 -250v-684h66v705q0 381 -365 380q-258 0 -358 -196v174h-66v-1063z" />
<glyph unicode="o" horiz-adv-x="1116" d="M90 528q0 -242 111 -391q123 -164 356 -164q231 0 358 164q111 150 111 391q0 242 -111 390q-125 168 -358 167q-233 0 -356 -167q-111 -148 -111 -390zM156 528q0 213 92 346q104 154 309 154q203 0 311 -154q92 -133 93 -346q0 -215 -93 -346q-109 -154 -311 -153 q-203 0 -309 153q-92 131 -92 346z" />
<glyph unicode="p" horiz-adv-x="1171" d="M141 -420h66v649q102 -256 401 -256q231 0 359 164q111 150 110 391q0 244 -110 392q-123 166 -359 165q-297 0 -401 -266v244h-66v-1483zM207 528q0 213 92 346q104 154 309 154q203 0 312 -154q92 -133 92 -346q0 -215 -92 -346q-109 -154 -312 -153q-203 0 -309 153 q-92 131 -92 346z" />
<glyph unicode="q" horiz-adv-x="1171" d="M94 528q0 -242 111 -391q127 -164 358 -164q299 0 402 256v-649h63v1483h-63v-244q-104 266 -402 266q-236 0 -358 -165q-111 -148 -111 -392zM160 528q0 215 94 346q104 154 309 154t309 -154q92 -133 93 -346q0 -215 -93 -346q-104 -154 -309 -153q-205 0 -311 153 q-92 131 -92 346z" />
<glyph unicode="r" horiz-adv-x="538" d="M141 0h66v707q0 109 59 178q74 84 144 104q33 12 108 12l41 58h-6q-265 0 -346 -172v176h-66v-1063z" />
<glyph unicode="s" horiz-adv-x="985" d="M102 315q14 -168 127 -258q109 -84 279 -84q150 0 258 72q121 84 121 227q0 133 -109 205q-66 45 -233 88q-16 2 -21 6q-326 82 -325 242q0 106 96 166q80 49 192 49q270 0 304 -248h63q-16 145 -115 228q-96 78 -243 77q-143 0 -246 -65q-119 -76 -119 -215 q0 -117 86 -184q76 -59 336 -127q23 -4 36 -8.5l19 -6.5q211 -57 211 -205q0 -123 -100 -186q-84 -55 -213 -55q-289 0 -340 282h-64z" />
<glyph unicode="t" horiz-adv-x="382" d="M96 0h66v1006h213v57h-213v291h-66v-1354z" />
<glyph unicode="u" d="M137 352q0 -379 365 -379q258 0 358 193v-166h64v1063h-64v-576q0 -63 -3 -109t-7 -77q-49 -270 -350 -270q-166 0 -236 92q-63 78 -63 250v690h-64v-711z" />
<glyph unicode="v" horiz-adv-x="909" d="M16 1063l396 -1063h73l410 1063h-68l-378 -987l-365 987h-68z" />
<glyph unicode="w" horiz-adv-x="1370" d="M27 1063l338 -1063h65l250 727l258 -727h66l339 1063h-65l-307 -963l-260 744h-60l-254 -744l-303 963h-67z" />
<glyph unicode="x" horiz-adv-x="839" d="M-8 0h74l352 498l356 -498h76l-393 549l366 514h-75l-328 -461l-336 461h-78l373 -514z" />
<glyph unicode="y" d="M127 -106q2 -150 106 -232q94 -76 250 -76q133 0 230 45q158 78 196 248q10 41 14.5 76t6.5 68v1062h-66v-569q0 -63 -3 -109.5t-7 -74.5q-49 -272 -350 -273q-166 0 -236 93q-61 80 -61 249v684h-66v-704q0 -381 365 -381q256 0 358 197v-164q0 -74 -6 -111 q-4 -31 -13 -56.5t-20 -45.5q-92 -178 -327 -178q-131 0 -215 59q-94 63 -101 193h-55z" />
<glyph unicode="z" horiz-adv-x="894" d="M35 0h825v63h-756l734 924v76h-762v-64h692l-733 -923v-76z" />
<glyph unicode="{" horiz-adv-x="1024" d="M274 494l45 2q215 8 216 -158q0 -84 -54 -262q-53 -176 -53 -262q0 -231 322 -226v70q-242 -2 -242 180q0 84 53 256t53 258q0 145 -143 178q145 25 145 183q0 90 -49 262q-49 174 -49 264q0 170 191 170h20q10 0 21 -2v70h-33q-285 0 -285 -215q0 -88 49 -261 q51 -166 51 -258q0 -193 -258 -176v-73z" />
<glyph unicode="|" horiz-adv-x="1024" d="M475 -481h74v2046h-74v-2046z" />
<glyph unicode="}" horiz-adv-x="1024" d="M182 -342v-70q319 -6 320 226q0 86 -53 262q-51 172 -52 262q0 168 213 158l45 -2v73q-256 -16 -256 176q0 88 50 258q49 172 49 261q0 215 -283 215h-33v-70q10 2 21 2h20q190 0 191 -170q0 -90 -49 -264q-49 -172 -50 -262q0 -158 144 -183q-143 -33 -144 -178 q0 -86 54 -258q55 -170 55 -256q0 -182 -242 -180z" />
<glyph unicode="~" horiz-adv-x="1232" d="M135 487q162 166 277 166q63 0 202 -71q143 -72 207 -72q127 0 277 149v72q-164 -162 -277 -162q-66 0 -205 72q-139 74 -204 74q-131 0 -277 -152v-76z" />
<glyph unicode="&#x85;" horiz-adv-x="2048" d="M297 66q0 -8 1 -14.5t1 -12.5q2 -8 6 -21q0 -2 4 -10q10 -20 33 -20q18 0 31 16q12 20 14 62v18v18q0 4 -1 6.5t-1 6.5q-4 41 -20 55h-3v2q-4 2 -16 6h-4q-12 0 -25 -8q0 -2 -2 -2v-2q-18 -23 -18 -82v-18zM979 59q0 -10 2 -20q2 -4 2 -10q2 -4 2 -6l2 -5q0 -2 2 -4 q0 -4 2 -6q8 -14 21 -18q2 -2 8 -2h4q10 0 20 6q4 4 8.5 9t8.5 15q4 12 6 28.5t2 37.5v18q0 4 -1 9.5t-1 9.5q0 2 -1 4t-1 4q-2 14 -10 31l-2 2q0 2 -2 4l-7 6q-8 4 -10 4q-2 2 -10 2h-4q-6 0 -8 -2q-4 0 -6 -2t-7 -4q0 -2 -2 -2v-2l-4 -4q0 -2 -2 -2q0 -2 -1 -4t-1 -4 q-4 -8 -6 -15q0 -4 -1 -8t-1 -8q-2 -10 -2 -37v-25zM1663 53q0 -4 1 -7t1 -7q0 -2 1 -3l1 -1v-6q2 -6 6 -15q0 -4 2 -6q2 -8 13 -14q4 -2 16 -6h4q10 0 21 6l6 6q8 12 10 18q4 16 6 27q0 4 1 9t1 12v18q0 10 -1 19.5t-1 17.5q-2 4 -2 8t-2 8q0 4 -1 5t-1 5l-6 13v2l-4 4 l-6 6q-8 4 -11 4q-2 2 -10 2h-4q-6 0 -8 -2q-12 -2 -23 -24q-2 -2 -2 -5q-2 -4 -2 -6l-2 -4q0 -4 -1 -8t-1 -8q0 -2 -1 -3t-1 -3v-31v-18v-13z" />
<glyph unicode="&#x2026;" horiz-adv-x="2048" d="M297 66q0 -8 1 -14.5t1 -12.5q2 -8 6 -21q0 -2 4 -10q10 -20 33 -20q18 0 31 16q12 20 14 62v18v18q0 4 -1 6.5t-1 6.5q-4 41 -20 55h-3v2q-4 2 -16 6h-4q-12 0 -25 -8q0 -2 -2 -2v-2q-18 -23 -18 -82v-18zM979 59q0 -10 2 -20q2 -4 2 -10q2 -4 2 -6l2 -5q0 -2 2 -4 q0 -4 2 -6q8 -14 21 -18q2 -2 8 -2h4q10 0 20 6q4 4 8.5 9t8.5 15q4 12 6 28.5t2 37.5v18q0 4 -1 9.5t-1 9.5q0 2 -1 4t-1 4q-2 14 -10 31l-2 2q0 2 -2 4l-7 6q-8 4 -10 4q-2 2 -10 2h-4q-6 0 -8 -2q-4 0 -6 -2t-7 -4q0 -2 -2 -2v-2l-4 -4q0 -2 -2 -2q0 -2 -1 -4t-1 -4 q-4 -8 -6 -15q0 -4 -1 -8t-1 -8q-2 -10 -2 -37v-25zM1663 53q0 -4 1 -7t1 -7q0 -2 1 -3l1 -1v-6q2 -6 6 -15q0 -4 2 -6q2 -8 13 -14q4 -2 16 -6h4q10 0 21 6l6 6q8 12 10 18q4 16 6 27q0 4 1 9t1 12v18q0 10 -1 19.5t-1 17.5q-2 4 -2 8t-2 8q0 4 -1 5t-1 5l-6 13v2l-4 4 l-6 6q-8 4 -11 4q-2 2 -10 2h-4q-6 0 -8 -2q-12 -2 -23 -24q-2 -2 -2 -5q-2 -4 -2 -6l-2 -4q0 -4 -1 -8t-1 -8q0 -2 -1 -3t-1 -3v-31v-18v-13z" />
<glyph horiz-adv-x="485" d="M170 1036h72l2 4q45 0 80.5 39t35.5 84q0 74 -67 74l61 252l-69 2z" />
<glyph unicode="&#x2018;" horiz-adv-x="485" d="M170 1036h72l2 4q45 0 80.5 39t35.5 84q0 74 -67 74l61 252l-69 2z" />
<glyph horiz-adv-x="485" d="M170 1364q0 -76 70 -76l-64 -252h72l112 453l-69 2l-2 -6q-45 0 -82 -38t-37 -83z" />
<glyph unicode="&#x2019;" horiz-adv-x="485" d="M170 1364q0 -76 70 -76l-64 -252h72l112 453l-69 2l-2 -6q-45 0 -82 -38t-37 -83z" />
<glyph horiz-adv-x="724" d="M170 1036h72l2 4q45 0 80.5 39t35.5 84q0 74 -67 74l61 252l-69 2zM471 1036h70l2 4h2q45 0 79.5 39t34.5 84q0 74 -65 74h-2l63 252l-69 2z" />
<glyph unicode="&#x201c;" horiz-adv-x="724" d="M170 1036h72l2 4q45 0 80.5 39t35.5 84q0 74 -67 74l61 252l-69 2zM471 1036h70l2 4h2q45 0 79.5 39t34.5 84q0 74 -65 74h-2l63 252l-69 2z" />
<glyph horiz-adv-x="724" d="M170 1364q0 -76 70 -76l-64 -252h72l112 453l-69 2l-2 -6q-45 0 -82 -38t-37 -83zM471 1364q0 -76 68 -76h2l-64 -252h70l112 453l-69 2v-6h-2q-45 0 -81 -38t-36 -83z" />
<glyph unicode="&#x201d;" horiz-adv-x="724" d="M170 1364q0 -76 70 -76l-64 -252h72l112 453l-69 2l-2 -6q-45 0 -82 -38t-37 -83zM471 1364q0 -76 68 -76h2l-64 -252h70l112 453l-69 2v-6h-2q-45 0 -81 -38t-36 -83z" />
<glyph horiz-adv-x="1208" d="M307 762q0 -129 82 -213q84 -84 213 -84q127 0 211 84q86 86 86 213t-84 211t-211 84q-66 0 -120 -21.5t-93 -61.5t-61.5 -94.5t-22.5 -117.5zM535 762q0 68 67 67q68 0 68 -67q0 -66 -68 -66q-67 0 -67 66z" />
<glyph unicode="&#x2022;" horiz-adv-x="1208" d="M307 762q0 -129 82 -213q84 -84 213 -84q127 0 211 84q86 86 86 213t-84 211t-211 84q-66 0 -120 -21.5t-93 -61.5t-61.5 -94.5t-22.5 -117.5zM535 762q0 68 67 67q68 0 68 -67q0 -66 -68 -66q-67 0 -67 66z" />
<glyph horiz-adv-x="1024" d="M0 508h1024v43h-1024v-43z" />
<glyph unicode="&#x2013;" horiz-adv-x="1024" d="M0 508h1024v43h-1024v-43z" />
<glyph horiz-adv-x="2048" d="M0 508h2048v43h-2048v-43z" />
<glyph unicode="&#x2014;" horiz-adv-x="2048" d="M0 508h2048v43h-2048v-43z" />
<glyph horiz-adv-x="1705" d="M285 1411h178v-485h57v485h174v41h-409v-41zM827 926h50v489l213 -293l14 4l199 289v-489h47v526h-86l-168 -256l-181 256h-88v-526z" />
<glyph unicode="&#x2122;" horiz-adv-x="1705" d="M285 1411h178v-485h57v485h174v41h-409v-41zM827 926h50v489l213 -293l14 4l199 289v-489h47v526h-86l-168 -256l-181 256h-88v-526z" />
<glyph unicode="&#xa2;" d="M90 528q0 -256 125 -405q92 -111 221 -137v-174h74v161h41h24q12 0 23 2v-163h74v174q98 23 168 86q113 98 131 270h-62q-18 -139 -114 -227q-59 -49 -123 -70v281h-74v-295q-10 -2 -20 -2h-21h-25q-12 0 -22 2v295h-74v-281q-102 31 -172 119q-109 133 -108 364 q0 233 108 367q70 86 172 117v-262h74v276q10 2 22 2h25h21q10 0 20 -2v-276h74v262q63 -18 110 -58q92 -80 113 -202h66q-23 156 -130 245q-66 53 -159 76v221h-74v-211q-10 2 -20 2h-21h-25q-12 0 -22 -2v211h-74v-223q-133 -31 -221 -135q-125 -150 -125 -408z" />
<glyph unicode="&#xa5;" horiz-adv-x="1085" d="M2 1473l477 -777h-352v-63h381v-291h-381v-63h381v-279h67v279h379v63h-379v291h379v63h-350l477 777h-77l-459 -752l-465 752h-78z" />
<glyph unicode="&#xa9;" horiz-adv-x="1705" d="M342 719q0 -213 147 -363q150 -147 363 -147q215 0 362 147q150 147 150 363q0 219 -147 364q-150 145 -365 146q-211 0 -360 -150q-150 -147 -150 -360zM406 719q0 184 131 313q131 131 315 131q188 0 319 -127q129 -127 129 -317q0 -184 -133 -318q-131 -131 -315 -131 q-82 0 -168 35q-129 55 -203.5 166t-74.5 248zM553 729q0 -164 68 -262q78 -115 235 -115q121 0 197 70q59 49 80 137l-60 31q-41 -176 -221 -176q-123 0 -184 100q-49 82 -50 215q0 133 52 215q63 104 186 105q162 0 211 -152l59 33q-63 180 -266 180q-158 0 -237 -117 q-70 -96 -70 -264z" />
<glyph unicode="&#xad;" horiz-adv-x="702" d="M78 500h545v57h-545v-57z" />
<glyph unicode="&#xae;" horiz-adv-x="1449" d="M342 719q0 -213 147 -363q150 -147 363 -147q211 0 362 147q150 150 150 363q0 219 -147 364q-145 145 -365 146q-211 0 -360 -150q-150 -147 -150 -360zM406 719q0 188 129 315q129 129 317 129t319 -127q129 -127 129 -317q0 -98 -32 -172q-53 -125 -168 -201 q-113 -76 -248 -76q-82 0 -168 35q-125 55 -201.5 167t-76.5 247zM641 367h66v327h190q70 0 96 -14q47 -29 47 -143v-170h70v239q-8 84 -68 119q94 49 95 170q0 199 -252 199h-244v-727zM707 756v274h178q55 0 84 -6q102 -18 102 -131q0 -137 -170 -137h-194z" />
<glyph unicode="&#xb4;" horiz-adv-x="1024" d="M397 1196h111l207 328h-109z" />
<glyph unicode="&#x2000;" horiz-adv-x="858" />
<glyph unicode="&#x2001;" horiz-adv-x="1718" />
<glyph unicode="&#x2002;" horiz-adv-x="858" />
<glyph unicode="&#x2003;" horiz-adv-x="1718" />
<glyph unicode="&#x2004;" horiz-adv-x="571" />
<glyph unicode="&#x2005;" horiz-adv-x="428" />
<glyph unicode="&#x2006;" horiz-adv-x="284" />
<glyph unicode="&#x2007;" horiz-adv-x="284" />
<glyph unicode="&#x2008;" horiz-adv-x="212" />
<glyph unicode="&#x2009;" horiz-adv-x="342" />
<glyph unicode="&#x200a;" horiz-adv-x="94" />
<glyph unicode="&#x2010;" horiz-adv-x="702" d="M78 500h545v57h-545v-57z" />
<glyph unicode="&#x2011;" horiz-adv-x="702" d="M78 500h545v57h-545v-57z" />
<glyph unicode="&#x2012;" horiz-adv-x="702" d="M78 500h545v57h-545v-57z" />
<glyph unicode="&#x202f;" horiz-adv-x="342" />
<glyph unicode="&#x205f;" horiz-adv-x="428" />
<glyph unicode="&#x20ac;" horiz-adv-x="1394" d="M86 594h178q16 -225 92 -379q113 -229 334 -229q174 0 283 133q80 98 106 252l-57 45q-59 -354 -338 -355q-182 0 -276 211q-59 133 -74 322h448l21 63h-473v76q0 29 1 58.5t3 58.5h538l21 61h-555q18 164 74 285q94 215 278 215q248 0 320 -301l61 43q-35 133 -108 217 q-109 121 -263 121q-229 0 -342 -234q-35 -70 -57 -155.5t-33 -190.5h-133l-20 -61h147q-2 -29 -2 -59v-58v-76h-156z" />
<glyph unicode="&#xe000;" horiz-adv-x="1065" d="M0 1065h1065v-1065h-1065v1065z" />
<glyph unicode="&#xfb01;" horiz-adv-x="790" d="M567 1393q0 -98 43 -99q45 0 45 99q0 96 -45 96q-43 0 -43 -96zM579 0h64v1063h-64v-1063zM98 0h64v1004h209v59h-209v151q0 111 18 152q31 61 127 61h178v56l-188 -2q-129 0 -168 -74q-31 -55 -31 -195v-1212z" />
<glyph unicode="&#xfb02;" horiz-adv-x="790" d="M579 0h64v1470h-64v-1470zM98 0h64v1004h209v59h-209v151q0 111 18 152q31 61 127 61h178v56l-188 -2q-129 0 -168 -74q-31 -55 -31 -195v-1212z" />
<glyph unicode="&#xfb03;" horiz-adv-x="1222" d="M999 1393q0 -98 43 -99q45 0 45 99q0 96 -45 96q-43 0 -43 -96zM1011 0h64v1063h-64v-1063zM530 0h64v1004h209v59h-209v151q0 111 18 152q31 61 127 61h178v56l-188 -2q-129 0 -168 -74q-31 -55 -31 -195v-1212zM98 0h64v1004h209v59h-209v151q0 111 18 152 q31 61 127 61h178v56l-188 -2q-129 0 -168 -74q-31 -55 -31 -195v-1212z" />
<glyph unicode="&#xfb04;" horiz-adv-x="1222" d="M1011 0h64v1470h-64v-1470zM530 0h64v1004h209v59h-209v151q0 111 18 152q31 61 127 61h178v56l-188 -2q-129 0 -168 -74q-31 -55 -31 -195v-1212zM98 0h64v1004h209v59h-209v151q0 111 18 152q31 61 127 61h178v56l-188 -2q-129 0 -168 -74q-31 -55 -31 -195v-1212z" />
</font>
</defs>
</svg>
